<?xml version="1.0" encoding="UTF-8" standalone="no"?>
<svg width="736px" height="547px" viewBox="0 0 736 547" version="1.1" xmlns="http://www.w3.org/2000/svg" xmlns:xlink="http://www.w3.org/1999/xlink" style="background: #FFFFFF;">
    <!-- Generator: Sketch 3.8.3 (29802) - http://www.bohemiancoding.com/sketch -->
    <title>Jenkins Kubernetes Engine</title>
    <desc>Created with Sketch.</desc>
    <defs>
        <rect id="path-1" x="0" y="0" width="169" height="32" rx="2"></rect>
        <mask id="mask-2" maskContentUnits="userSpaceOnUse" maskUnits="objectBoundingBox" x="0" y="0" width="169" height="32" fill="white">
            <use xlink:href="#path-1"></use>
        </mask>
        <rect id="path-3" x="0" y="0" width="169" height="32" rx="2"></rect>
        <mask id="mask-4" maskContentUnits="userSpaceOnUse" maskUnits="objectBoundingBox" x="0" y="0" width="169" height="32" fill="white">
            <use xlink:href="#path-3"></use>
        </mask>
        <rect id="path-5" x="0" y="0" width="169" height="32" rx="2"></rect>
        <mask id="mask-6" maskContentUnits="userSpaceOnUse" maskUnits="objectBoundingBox" x="0" y="0" width="169" height="32" fill="white">
            <use xlink:href="#path-5"></use>
        </mask>
        <rect id="path-7" x="0" y="0" width="169" height="32" rx="2"></rect>
        <mask id="mask-8" maskContentUnits="userSpaceOnUse" maskUnits="objectBoundingBox" x="0" y="0" width="169" height="32" fill="white">
            <use xlink:href="#path-7"></use>
        </mask>
        <rect id="path-9" x="0" y="0" width="169" height="32" rx="2"></rect>
        <mask id="mask-10" maskContentUnits="userSpaceOnUse" maskUnits="objectBoundingBox" x="0" y="0" width="169" height="32" fill="white">
            <use xlink:href="#path-9"></use>
        </mask>
        <rect id="path-11" x="0" y="0" width="169" height="32" rx="2"></rect>
        <mask id="mask-12" maskContentUnits="userSpaceOnUse" maskUnits="objectBoundingBox" x="0" y="0" width="169" height="32" fill="white">
            <use xlink:href="#path-11"></use>
        </mask>
        <rect id="path-13" x="0" y="0" width="169" height="32" rx="2"></rect>
        <mask id="mask-14" maskContentUnits="userSpaceOnUse" maskUnits="objectBoundingBox" x="0" y="0" width="169" height="32" fill="white">
            <use xlink:href="#path-13"></use>
        </mask>
        <rect id="path-15" x="0" y="0" width="169" height="32" rx="2"></rect>
        <mask id="mask-16" maskContentUnits="userSpaceOnUse" maskUnits="objectBoundingBox" x="0" y="0" width="169" height="32" fill="white">
            <use xlink:href="#path-15"></use>
        </mask>
    </defs>
    <g id="Icons" stroke="none" stroke-width="1" fill="none" fill-rule="evenodd">
        <g id="Jenkins-Kubernetes-Engine" transform="translate(0.000000, 2.000000)">
            <rect id="Rectangle-1355" fill="#F5F5F5" x="28" y="99" width="684" height="414"></rect>
            <path d="M680.634409,395 L61.3655914,395 C59.5061022,395 58,394.475954 58,393.828947 L58,218.171053 C58,217.524046 59.5061022,217 61.3655914,217 L680.634409,217 C682.493898,217 684,217.524046 684,218.171053 L684,393.828947 C684,394.475954 682.493898,395 680.634409,395" id="Fill-9" stroke="#FFFFFF" fill="#E1F5FE"></path>
            <text id="Kubernetes-Engine" font-family="Roboto-Medium, Roboto" font-size="14" font-weight="400" letter-spacing="-0.1428" fill="#000000">
                <tspan x="80" y="242">Kubernetes Engine</tspan>
            </text>
            <g id="Group-2" transform="translate(74.000000, 262.000000)">
                <path d="M181.809524,118 L2.19047619,118 C0.980238095,118 0,117.413278 0,116.688889 L0,1.31111111 C0,0.586722222 0.980238095,0 2.19047619,0 L181.809524,0 C183.019762,0 184,0.586722222 184,1.31111111 L184,116.688889 C184,117.413278 183.019762,118 181.809524,118" id="Fill-5" stroke="#FAFAFA" fill="#B3E5FC"></path>
                <text id="Node-1" font-family="Roboto-Medium, Roboto" font-size="14" font-weight="400" letter-spacing="-0.1428" fill="#000000">
                    <tspan x="10" y="21">Node 1</tspan>
                </text>
                <g id="Group-10-Copy-9" transform="translate(8.000000, 35.000000)">
                    <use id="Rectangle-1759" stroke="#E0E0E0" mask="url(#mask-2)" stroke-width="2" fill="#03A9F4" xlink:href="#path-1"></use>
                    <text id="Jenkins-Master-Pod" font-family="Roboto-Regular, Roboto" font-size="12" font-weight="normal" fill="#FFFFFF">
                        <tspan x="31.5107422" y="21">Jenkins Master Pod</tspan>
                    </text>
                </g>
            </g>
            <g id="Group-2-Copy" transform="translate(72.000000, 419.000000)">
                <path d="M181.809524,79 L2.19047619,79 C0.980238095,79 0,78.6071944 0,78.1222222 L0,0.877777778 C0,0.392805556 0.980238095,0 2.19047619,0 L181.809524,0 C183.019762,0 184,0.392805556 184,0.877777778 L184,78.1222222 C184,78.6071944 183.019762,79 181.809524,79" id="Fill-5" stroke="#FAFAFA" fill="#E1F5FE"></path>
                <text id="Compute-Engine" font-family="Roboto-Medium, Roboto" font-size="14" font-weight="400" letter-spacing="-0.1428" fill="#000000">
                    <tspan x="9" y="23">Compute Engine</tspan>
                </text>
            </g>
            <g id="Group" transform="translate(39.000000, 112.000000)">
                <text id="Google-Cloud-Platfor" font-family="Roboto-Medium, Roboto" font-size="14" font-weight="400" fill="#000000">
                    <tspan x="28" y="15.12475">Google Cloud Platform</tspan>
                </text>
                <polygon id="Fill-335" fill="#CECDCA" points="6.8517 16.0473 3.0647 9.4893 6.8517 2.9303 14.4247 2.9303 18.2117 9.4893 14.4247 16.0473"></polygon>
                <path d="M7.4944,15.2222 L4.1274,9.4662 L2.2824,6.3112 C2.1474,6.0782 2.0914,5.7592 2.1134,5.4542 L0.1744,8.8132 C-0.0576,9.2152 -0.0576,9.8722 0.1744,10.2742 L4.8394,18.3552 C5.0714,18.7572 5.6414,19.0862 6.1054,19.0862 L11.6584,19.0862 C11.8804,18.9552 12.0744,18.7762 12.1874,18.5802 L14.0884,15.2222 L7.4944,15.2222 Z" id="Fill-336" fill="#F3B41A"></path>
                <polygon id="Fill-337" fill="#DC462F" points="21.368 8.8128 16.702 0.7318 18.598 4.0148"></polygon>
                <path d="M21.368,8.8128 L18.598,4.0148 C18.358,3.8678 18.083,3.7748 17.836,3.7748 L14.081,3.7748 L17.328,9.4978 L14.088,15.2218 L12.187,18.5808 C12.074,18.7768 11.881,18.9548 11.658,19.0858 L15.437,19.0858 C15.901,19.0858 16.47,18.7578 16.702,18.3558 L18.558,15.1418 L21.368,10.2738 C21.6,9.8728 21.6,9.2148 21.368,8.8128" id="Fill-338" fill="#DC462F"></path>
                <path d="M16.7024,0.7317 C16.4704,0.3297 15.9004,0.000700000001 15.4364,0.000700000001 L11.7674,0.000700000001 L6.1054,0.000700000001 C5.6414,0.000700000001 5.0714,0.3297 4.8394,0.7317 L2.1134,5.4547 C2.0914,5.7597 2.1474,6.0777 2.2824,6.3107 L4.1274,9.4667 L7.4224,3.7747 L14.0814,3.7747 L17.8364,3.7747 C18.0824,3.7747 18.3584,3.8677 18.5984,4.0147 L16.7024,0.7317 Z" id="Fill-339" fill="#517DBE"></path>
                <polygon id="Fill-340" fill="#CECDCA" points="4.1278 9.4665 7.4948 15.2225 14.0878 15.2225 17.3278 9.4975 14.0808 3.7745 7.4228 3.7745"></polygon>
                <path d="M2.2317,5.2476 L2.1127,5.4546 C2.0907,5.7596 2.1467,6.0776 2.2817,6.3106 L4.1267,9.4666 L5.1087,7.7706 L2.2317,5.2476 Z" id="Fill-341" fill="#4F71A8"></path>
                <path d="M18.723,4.23 L18.599,4.015 C18.359,3.868 18.084,3.774 17.837,3.774 L14.082,3.774 L15.059,5.497 L18.723,4.23 Z" id="Fill-342" fill="#C2432F"></path>
                <path d="M10.7647,12.4826 C9.1377,12.4826 7.8137,11.1586 7.8137,9.5306 C7.8137,7.9036 9.1377,6.5796 10.7647,6.5796 C12.3917,6.5796 13.7157,7.9036 13.7157,9.5306 C13.7157,11.1586 12.3917,12.4826 10.7647,12.4826" id="Fill-344" fill="#FFFFFF"></path>
                <path d="M10.7647,6.5374 C9.1137,6.5374 7.7707,7.8804 7.7707,9.5314 C7.7707,11.1814 9.1137,12.5244 10.7647,12.5244 C12.4157,12.5244 13.7587,11.1814 13.7587,9.5314 C13.7587,7.8804 12.4157,6.5374 10.7647,6.5374 M10.7647,6.6214 C12.3717,6.6214 13.6737,7.9244 13.6737,9.5314 C13.6737,11.1374 12.3717,12.4404 10.7647,12.4404 C9.1577,12.4404 7.8557,11.1374 7.8557,9.5314 C7.8557,7.9244 9.1577,6.6214 10.7647,6.6214" id="Fill-345" fill="#C9C7C5"></path>
                <path d="M6.3459,2.427 C6.0319,2.427 5.7759,2.172 5.7759,1.858 C5.7759,1.544 6.0319,1.288 6.3459,1.288 C6.6599,1.288 6.9149,1.544 6.9149,1.858 C6.9149,2.172 6.6599,2.427 6.3459,2.427" id="Fill-346" fill="#FFFFFF"></path>
                <path d="M6.3459,1.246 C6.0089,1.246 5.7339,1.52 5.7339,1.858 C5.7339,2.195 6.0089,2.469 6.3459,2.469 C6.6829,2.469 6.9579,2.195 6.9579,1.858 C6.9579,1.52 6.6829,1.246 6.3459,1.246 M6.3459,1.33 C6.6369,1.33 6.8729,1.566 6.8729,1.858 C6.8729,2.149 6.6369,2.385 6.3459,2.385 C6.0549,2.385 5.8189,2.149 5.8189,1.858 C5.8189,1.566 6.0549,1.33 6.3459,1.33" id="Fill-347" fill="#4472B7"></path>
                <path d="M15.677,1.8575 C15.677,2.1485 15.441,2.3845 15.15,2.3845 C14.859,2.3845 14.622,2.1485 14.622,1.8575 C14.622,1.5665 14.859,1.3305 15.15,1.3305 C15.441,1.3305 15.677,1.5665 15.677,1.8575" id="Fill-348" fill="#FFFFFF"></path>
                <path d="M15.677,1.8575 C15.677,2.1485 15.441,2.3845 15.15,2.3845 C14.859,2.3845 14.622,2.1485 14.622,1.8575 C14.622,1.5665 14.859,1.3305 15.15,1.3305 C15.441,1.3305 15.677,1.5665 15.677,1.8575 L15.677,1.8575 Z" id="Stroke-349" stroke="#4472B7"></path>
                <path d="M19.5815,10.1006 C19.2675,10.1006 19.0125,9.8446 19.0125,9.5306 C19.0125,9.2176 19.2675,8.9616 19.5815,8.9616 C19.8955,8.9616 20.1505,9.2176 20.1505,9.5306 C20.1505,9.8446 19.8955,10.1006 19.5815,10.1006" id="Fill-354" fill="#FFFFFF"></path>
                <path d="M19.5815,8.9194 C19.2445,8.9194 18.9695,9.1934 18.9695,9.5314 C18.9695,9.8684 19.2445,10.1424 19.5815,10.1424 C19.9185,10.1424 20.1935,9.8684 20.1935,9.5314 C20.1935,9.1934 19.9185,8.9194 19.5815,8.9194 M19.5815,9.0034 C19.8725,9.0034 20.1085,9.2394 20.1085,9.5314 C20.1085,9.8224 19.8725,10.0584 19.5815,10.0584 C19.2905,10.0584 19.0545,9.8224 19.0545,9.5314 C19.0545,9.2394 19.2905,9.0034 19.5815,9.0034" id="Fill-355" fill="#DD482F"></path>
                <path d="M1.9063,10.1006 C1.5923,10.1006 1.3373,9.8446 1.3373,9.5306 C1.3373,9.2176 1.5923,8.9616 1.9063,8.9616 C2.2203,8.9616 2.4753,9.2176 2.4753,9.5306 C2.4753,9.8446 2.2203,10.1006 1.9063,10.1006" id="Fill-356" fill="#FFFFFF"></path>
                <path d="M1.9063,8.9194 C1.5693,8.9194 1.2943,9.1934 1.2943,9.5314 C1.2943,9.8684 1.5693,10.1424 1.9063,10.1424 C2.2433,10.1424 2.5183,9.8684 2.5183,9.5314 C2.5183,9.1934 2.2433,8.9194 1.9063,8.9194 M1.9063,9.0034 C2.1973,9.0034 2.4333,9.2394 2.4333,9.5314 C2.4333,9.8224 2.1973,10.0584 1.9063,10.0584 C1.6153,10.0584 1.3793,9.8224 1.3793,9.5314 C1.3793,9.2394 1.6153,9.0034 1.9063,9.0034" id="Fill-357" fill="#F2AF1C"></path>
            </g>
            <g id="Group-3" transform="translate(484.000000, 262.000000)">
                <path d="M181.809524,118 L2.19047619,118 C0.980238095,118 0,117.413278 0,116.688889 L0,1.31111111 C0,0.586722222 0.980238095,0 2.19047619,0 L181.809524,0 C183.019762,0 184,0.586722222 184,1.31111111 L184,116.688889 C184,117.413278 183.019762,118 181.809524,118" id="Fill-5-Copy" stroke="#FAFAFA" fill="#B3E5FC"></path>
                <text id="Node-2" font-family="Roboto-Medium, Roboto" font-size="14" font-weight="400" letter-spacing="-0.1428" fill="#000000">
                    <tspan x="8" y="21">Node 2</tspan>
                </text>
            </g>
            <g id="Group-6" transform="translate(367.000000, 40.000000)">
                <path d="M4,72.5 L4,0" id="Stroke-242" stroke="#616161"></path>
                <polygon id="Fill-244" fill="#616161" transform="translate(4.032000, 71.271500) rotate(90.000000) translate(-4.032000, -71.271500) " points="2.546 68 2 68.586 4.89 71.271 2 73.957 2.546 74.543 6.064 71.271"></polygon>
            </g>
            <g id="Group-6-Copy" transform="translate(76.000000, 189.000000)">
                <path d="M295,104.784348 L295,0" id="Stroke-242" stroke="#616161"></path>
                <polygon id="Fill-244" fill="#616161" transform="translate(295.032000, 103.271500) rotate(90.000000) translate(-295.032000, -103.271500) " points="293.546 100 293 100.586 295.89 103.271 293 105.957 293.546 106.543 297.064 103.271"></polygon>
                <g id="Group-8" transform="translate(0.000000, 116.000000)">
                    <polygon id="Fill-244-Copy" fill="#616161" transform="translate(179.271500, 4.032000) scale(-1, 1) translate(-179.271500, -4.032000) " points="177.7855 0.7605 177.2395 1.3465 180.1295 4.0315 177.2395 6.7175 177.7855 7.3035 181.3035 4.0315"></polygon>
                    <polygon id="Fill-244-Copy-4" fill="#616161" points="0.546 4 1.42108547e-14 4.586 2.89 7.271 1.42108547e-14 9.957 0.546 10.543 4.064 7.271"></polygon>
                    <polygon id="Fill-244-Copy-2" fill="#616161" transform="translate(179.032000, 12.271500) scale(-1, 1) translate(-179.032000, -12.271500) " points="177.546 9 177 9.586 179.89 12.271 177 14.957 177.546 15.543 181.064 12.271"></polygon>
                    <path d="M213.919698,3.76049231 L178.371038,3.76049231" id="Path-3836" stroke="#616161"></path>
                </g>
                <g id="Group-8-Copy-2" transform="translate(382.000000, 155.000000)">
                    <polygon id="Fill-244-Copy" fill="#616161" transform="translate(2.271500, 14.032000) scale(-1, 1) translate(-2.271500, -14.032000) " points="0.7855 10.7605 0.2395 11.3465 3.1295 14.0315 0.2395 16.7175 0.7855 17.3035 4.3035 14.0315"></polygon>
                    <polygon id="Fill-244-Copy-3" fill="#616161" transform="translate(2.032000, 3.271500) scale(-1, 1) translate(-2.032000, -3.271500) " points="0.546 0 1.42108547e-14 0.586 2.89 3.271 1.42108547e-14 5.957 0.546 6.543 4.064 3.271"></polygon>
                    <path d="M36.9196982,13.7604923 L1.37103753,13.7604923" id="Path-3836" stroke="#616161"></path>
                </g>
                <g id="Group-8-Copy" transform="translate(189.500000, 169.000000) scale(-1, 1) translate(-189.500000, -169.000000) translate(171.000000, 165.000000)">
                    <polygon id="Fill-244-Copy" fill="#616161" transform="translate(2.271500, 4.032000) scale(-1, 1) translate(-2.271500, -4.032000) " points="0.7855 0.7605 0.2395 1.3465 3.1295 4.0315 0.2395 6.7175 0.7855 7.3035 4.3035 4.0315"></polygon>
                    <path d="M36.9196982,3.76049231 L1.37103753,3.76049231" id="Path-3836" stroke="#616161"></path>
                </g>
                <polyline id="Path-3840" stroke="#616161" points="211.940588 159.837867 188.330343 159.837867 188.330343 128.163916 178.200524 128.163916"></polyline>
                <polyline id="Path-3844" stroke="#616161" points="416.741395 124.647181 393.440511 124.647181 393.440511 158.093638 382.705299 158.093638"></polyline>
            </g>
            <g id="Group-2-Copy-2" transform="translate(278.000000, 120.000000)">
                <path d="M181.809524,79 L2.19047619,79 C0.980238095,79 0,78.6071944 0,78.1222222 L0,0.877777778 C0,0.392805556 0.980238095,0 2.19047619,0 L181.809524,0 C183.019762,0 184,0.392805556 184,0.877777778 L184,78.1222222 C184,78.6071944 183.019762,79 181.809524,79" id="Fill-5" stroke="#FAFAFA" fill="#E1F5FE"></path>
                <text id="HTTP(s)-Load-Balance" font-family="Roboto-Medium, Roboto" font-size="14" font-weight="400" letter-spacing="-0.1428" fill="#000000">
                    <tspan x="9" y="23">HTTP(s) Load Balancer</tspan>
                </text>
            </g>
            <g id="Group-10-Copy-5" transform="translate(286.000000, 297.000000)">
                <use id="Rectangle-1759" stroke="#E0E0E0" mask="url(#mask-4)" stroke-width="2" fill="#F4B400" xlink:href="#path-3"></use>
                <text id="Jenkins-UI-Service" font-family="Roboto-Regular, Roboto" font-size="12" font-weight="normal" fill="#FFFFFF">
                    <tspan x="35.8027344" y="21">Jenkins UI Service</tspan>
                </text>
            </g>
            <g id="Group-10-Copy-6" transform="translate(82.000000, 337.000000)">
                <use id="Rectangle-1759" stroke="#E0E0E0" mask="url(#mask-6)" stroke-width="2" fill="#03A9F4" xlink:href="#path-5"></use>
                <text id="Jenkins-Executor-Pod" font-family="Roboto-Regular, Roboto" font-size="12" font-weight="normal" fill="#FFFFFF">
                    <tspan x="26.9697266" y="21">Jenkins Executor Pod</tspan>
                </text>
            </g>
            <g id="Group-10-Copy-12" transform="translate(286.000000, 337.000000)">
                <use id="Rectangle-1759" stroke="#E0E0E0" mask="url(#mask-8)" stroke-width="2" fill="#F4B400" xlink:href="#path-7"></use>
                <text id="Jenkins-Discovery-Se" font-family="Roboto-Regular, Roboto" font-size="12" font-weight="normal" fill="#FFFFFF">
                    <tspan x="15.3535156" y="21">Jenkins Discovery Service</tspan>
                </text>
            </g>
            <g id="Group-10-Copy-7" transform="translate(491.000000, 299.000000)">
                <use id="Rectangle-1759" stroke="#E0E0E0" mask="url(#mask-10)" stroke-width="2" fill="#03A9F4" xlink:href="#path-9"></use>
                <text id="Jenkins-Executor-Pod" font-family="Roboto-Regular, Roboto" font-size="12" font-weight="normal" fill="#FFFFFF">
                    <tspan x="26.9697266" y="21">Jenkins Executor Pod</tspan>
                </text>
            </g>
            <g id="Group-10" transform="translate(491.000000, 337.000000)">
                <use id="Rectangle-1759" stroke="#E0E0E0" mask="url(#mask-12)" stroke-width="2" fill="#03A9F4" xlink:href="#path-11"></use>
                <text id="Jenkins-Executor-Pod" font-family="Roboto-Regular, Roboto" font-size="12" font-weight="normal" fill="#FFFFFF">
                    <tspan x="26.9697266" y="21">Jenkins Executor Pod</tspan>
                </text>
            </g>
            <g id="Group-10-Copy-9" transform="translate(286.000000, 158.000000)">
                <use id="Rectangle-1759" stroke="#E0E0E0" mask="url(#mask-14)" stroke-width="2" fill="#FFFFFF" xlink:href="#path-13"></use>
                <text id="UI-Ingress" font-family="Roboto-Regular, Roboto" font-size="12" font-weight="normal" fill="#212121">
                    <tspan x="57.8427734" y="21">UI Ingress</tspan>
                </text>
            </g>
            <polyline id="Path-3847" stroke="#616161" points="85.8426339 473.142865 49.1500785 473.142865 49.1500785 312.032865 79.1259606 312.032865"></polyline>
            <g id="Group-10-Copy-9" transform="translate(80.000000, 457.000000)">
                <use id="Rectangle-1759" stroke="#E0E0E0" mask="url(#mask-16)" stroke-width="2" fill="#FFFFFF" xlink:href="#path-15"></use>
                <text id="Jenkins-Data-Persist" font-family="Roboto-Regular, Roboto" font-size="12" font-weight="normal" fill="#212121">
                    <tspan x="8.38671875" y="21">Jenkins Data Persistent Disk</tspan>
                </text>
            </g>
            <g id="Group-4" transform="translate(318.000000, 30.000000)">
                <g id="Group">
                    <g id="Group-7">
                        <g id="Group-5">
                            <path d="M1.59090909,47.5 C0.933068182,47.5 0.397727273,46.827 0.397727273,46 L0.397727273,2 C0.397727273,1.173 0.933068182,0.5 1.59090909,0.5 L103.409091,0.5 C104.066932,0.5 104.602273,1.173 104.602273,2 L104.602273,46 C104.602273,46.827 104.066932,47.5 103.409091,47.5 L1.59090909,47.5 Z" id="Fill-1" fill="#FFFFFF"></path>
                            <path d="M103.409091,0 L1.59090909,0 C0.711931818,0 0,0.896 0,2 L0,46 C0,47.105 0.711931818,48 1.59090909,48 L103.409091,48 C104.288068,48 105,47.105 105,46 L105,2 C105,0.896 104.288068,0 103.409091,0 M103.409091,1 C103.847386,1 104.204545,1.449 104.204545,2 L104.204545,46 C104.204545,46.551 103.847386,47 103.409091,47 L1.59090909,47 C1.15261364,47 0.795454545,46.551 0.795454545,46 L0.795454545,2 C0.795454545,1.449 1.15261364,1 1.59090909,1 L103.409091,1" id="Fill-3" fill="#E0E0E0"></path>
                        </g>
                        <text id="Users" font-family="Roboto-Regular, Roboto" font-size="12" font-weight="normal" fill="#000000">
                            <tspan x="56" y="27.9375">Users</tspan>
                        </text>
                    </g>
                </g>
                <g id="laptop" transform="translate(14.000000, 13.000000)" fill="#616161">
                    <path d="M27.5,19.25 C29.0125,19.25 30.25,18.0125 30.25,16.5 L30.25,2.75 C30.25,1.2375 29.0125,0 27.5,0 L5.5,0 C3.9875,0 2.75,1.2375 2.75,2.75 L2.75,16.5 C2.75,18.0125 3.9875,19.25 5.5,19.25 L0,19.25 L0,22 L33,22 L33,19.25 L27.5,19.25 L27.5,19.25 Z M5.5,2.75 L27.5,2.75 L27.5,16.5 L5.5,16.5 L5.5,2.75 L5.5,2.75 Z" id="Shape"></path>
                </g>
            </g>
        </g>
    </g>
</svg>
